<svg width="262" height="158" viewBox="0 0 262 158" fill="none" xmlns="http://www.w3.org/2000/svg">
<rect x="1" y="1" width="260" height="156" rx="6.13913" fill="white"/>
<g clip-path="url(#clip0_84:4763)">
<rect x="101.839" y="33.4741" width="24.5565" height="24.5565" rx="12.2783" fill="#FF9900"/>
<path d="M119.154 44.3988C119.37 42.9474 118.265 42.1672 116.754 41.6467L117.244 39.6807L116.047 39.3824L115.57 41.2967C115.256 41.2183 114.933 41.1443 114.612 41.071L115.092 39.1442L113.896 38.8459L113.406 40.8113C113.145 40.752 112.89 40.6934 112.642 40.6317L112.643 40.6255L110.993 40.2134L110.674 41.4916C110.674 41.4916 111.562 41.6951 111.543 41.7077C112.028 41.8287 112.116 42.1495 112.101 42.4038L111.543 44.6435C111.576 44.652 111.619 44.6643 111.667 44.6834L111.541 44.652L110.758 47.7896C110.699 47.9368 110.548 48.1577 110.21 48.0738C110.221 48.0912 109.34 47.8567 109.34 47.8567L108.746 49.2269L110.303 49.6152C110.593 49.6878 110.877 49.7638 111.156 49.8354L110.661 51.8242L111.856 52.1225L112.347 50.1551C112.673 50.2437 112.99 50.3255 113.3 50.4025L112.812 52.3607L114.008 52.659L114.504 50.6742C116.544 51.0604 118.079 50.9046 118.724 49.0592C119.245 47.5731 118.699 46.7159 117.625 46.1565C118.407 45.9756 118.996 45.4612 119.154 44.3988ZM116.419 48.233C116.049 49.7191 113.547 48.9161 112.735 48.7143L113.392 46.0799C114.204 46.2823 116.804 46.6832 116.419 48.233ZM116.789 44.3773C116.451 45.7291 114.369 45.0423 113.693 44.8739L114.289 42.4845C114.964 42.6529 117.14 42.9672 116.789 44.3773Z" fill="white"/>
</g>
<g clip-path="url(#clip1_84:4763)">
<rect x="118.722" y="33.4741" width="24.5565" height="24.5565" rx="12.2783" fill="#627EEA"/>
<path d="M131.197 39.252L131.11 39.5481V48.1425L131.197 48.2295L135.187 45.8713L131.197 39.252Z" fill="white"/>
<path d="M131.197 39.252L127.208 45.8713L131.197 48.2294V44.058V39.252Z" fill="white"/>
<path d="M131.197 48.9848L131.148 49.0447V52.1061L131.197 52.2495L135.189 46.6279L131.197 48.9848Z" fill="white"/>
<path d="M131.197 52.2494V48.9846L127.208 46.6277L131.197 52.2494Z" fill="white"/>
<path d="M131.198 48.2295L135.187 45.8714L131.198 44.0581V48.2295Z" fill="white"/>
<path d="M127.208 45.8711L131.197 48.2292V44.0579L127.208 45.8711Z" fill="white"/>
</g>
<g clip-path="url(#clip2_84:4763)">
<path fill-rule="evenodd" clip-rule="evenodd" d="M147.882 33.4741C154.663 33.4741 160.161 38.9723 160.161 45.7524C160.161 52.5324 154.663 58.0306 147.882 58.0306C141.102 58.0306 135.604 52.5324 135.604 45.7524C135.604 38.9723 141.102 33.4741 147.882 33.4741Z" fill="#4B599A"/>
<g clip-path="url(#clip3_84:4763)">
<path d="M153.901 41.9187L153.194 41.4049L154.847 40.5706L153.901 41.9187Z" fill="white"/>
<path d="M149.698 40.2271L151.757 41.2855L152.004 42.9928L149.698 40.2271Z" fill="white"/>
<path d="M152.004 42.9928L151.676 44.4453L149.698 40.2271L152.004 42.9928Z" fill="white"/>
<path d="M151.676 44.4453L148.524 40.4666L149.703 40.2349L151.676 44.4453Z" fill="white"/>
<path d="M151.676 44.4453L148.258 43.1087L148.524 40.4666L151.676 44.4453Z" fill="white"/>
<path d="M148.524 40.4666L148.258 43.1087L144.735 43.6032L148.524 40.4666Z" fill="white"/>
<path d="M151.676 44.4454L147.906 45.4691L148.258 43.1089L151.676 44.4454Z" fill="white"/>
<path d="M147.906 45.4687L151.676 44.4451L149.976 45.2369L147.906 45.4687Z" fill="white"/>
<path d="M145.823 45.8241L147.905 45.4688L147.94 46.1795L145.823 45.8241Z" fill="white"/>
<path d="M147.941 46.1798L147.906 45.4691L149.976 45.2373L147.941 46.1798Z" fill="white"/>
<path d="M144.735 43.6033L148.258 43.1089L147.906 45.4691L144.735 43.6033Z" fill="white"/>
<path d="M144.735 43.603L147.906 45.4688L145.824 45.8241L144.735 43.603Z" fill="white"/>
<path d="M144.735 43.603L145.824 45.8241L144.773 46.5929L144.735 43.603Z" fill="white"/>
<path d="M142.946 44.2019L143.367 46.7321L142.208 44.9899L142.946 44.2019Z" fill="white"/>
<path d="M140.871 45.0054L142.208 44.99L142.216 45.805L140.871 45.0054Z" fill="white"/>
<path d="M140.979 45.5578L140.871 45.0054L142.216 45.805L140.979 45.5578Z" fill="white"/>
<path d="M140.98 45.5578L140.215 46.2337L140.872 45.0054L140.98 45.5578Z" fill="white"/>
<path d="M140.215 46.2339L140.161 46.6433L139.288 46.5004L140.215 46.2339Z" fill="white"/>
<path d="M140.215 46.2336L140.98 45.5576L140.161 46.6431L140.215 46.2336Z" fill="white"/>
<path d="M142.208 44.99L143.367 46.7321L142.216 46.96L142.208 44.99Z" fill="white"/>
<path d="M142.548 48.2578L141.71 49.9922L141.586 48.6557L142.548 48.2578Z" fill="white"/>
<path d="M141.586 48.6555L141.709 49.9921L141.227 50.2238L141.586 48.6555Z" fill="white"/>
<path d="M141.71 49.9922L141.837 50.645L140.841 50.8497L141.71 49.9922Z" fill="white"/>
<path d="M141.227 50.224L141.71 49.9922L140.841 50.8497L141.227 50.224Z" fill="white"/>
<path d="M142.216 46.9598L143.367 46.7319L141.586 48.6556L142.216 46.9598Z" fill="white"/>
<path d="M143.367 46.7319L144.151 47.6242L141.586 48.6556L143.367 46.7319Z" fill="white"/>
<path d="M142.946 44.2018L144.734 43.603L143.367 46.7319L142.946 44.2018Z" fill="white"/>
<path d="M143.367 46.7319L144.734 43.603L144.773 46.5929L143.367 46.7319Z" fill="white"/>
<path d="M144.151 47.6241L143.367 46.7318L144.773 46.5928L144.151 47.6241Z" fill="white"/>
<path d="M149.977 45.2372L151.634 45.2256L150.576 46.8402L149.977 45.2372Z" fill="white"/>
<path d="M149.977 45.2369L151.676 44.4451L151.634 45.2254L149.977 45.2369Z" fill="white"/>
<path d="M149.652 46.6665L149.976 45.2373L150.575 46.8404L149.652 46.6665Z" fill="white"/>
<path d="M149.254 47.4156L149.652 46.6663L150.575 46.8401L149.254 47.4156Z" fill="white"/>
<path d="M148.451 47.9526L148.702 46.7242L149.652 46.6663L148.451 47.9526Z" fill="white"/>
<path d="M148.451 47.9526L149.652 46.6663L149.254 47.4156L148.451 47.9526Z" fill="white"/>
<path d="M153.194 41.4053L154.77 40.3005L154.847 40.5709L153.194 41.4053Z" fill="white"/>
<path d="M154.77 40.3005L156.06 40.2349L154.847 40.5709L154.77 40.3005Z" fill="white"/>
<path d="M153.943 42.8227L153.225 42.3167L155.654 42.3205L153.943 42.8227Z" fill="white"/>
<path d="M153.225 42.317L155.314 42.0466L155.654 42.3209L153.225 42.317Z" fill="white"/>
<path d="M155.315 42.0467L156.273 41.2085L155.655 42.321L155.315 42.0467Z" fill="white"/>
<path d="M155.655 42.321L156.273 41.2085L156.478 41.3051L155.655 42.321Z" fill="white"/>
<path d="M156.272 41.2082L156.442 40.7253L156.477 41.3048L156.272 41.2082Z" fill="white"/>
<path d="M152.004 42.9927L152.236 45.0245L151.676 44.4451L152.004 42.9927Z" fill="white"/>
<path d="M152.236 45.0248L152.005 42.993L153.944 42.823L152.236 45.0248Z" fill="white"/>
<path d="M153.943 42.823L152.004 42.993L151.757 41.2856L153.943 42.823Z" fill="white"/>
<path d="M153.901 41.9189L154.213 42.2009L153.225 42.3168L153.901 41.9189Z" fill="white"/>
<path d="M151.757 41.2856L153.901 41.9191L153.225 42.317L151.757 41.2856Z" fill="white"/>
<path d="M151.757 41.2856L153.194 41.4054L153.901 41.9191L151.757 41.2856Z" fill="white"/>
<path d="M153.855 46.0369L153.944 42.823L154.716 43.4526L153.855 46.0369Z" fill="white"/>
<path d="M153.855 46.0369L153.943 42.823L152.236 45.0248L153.855 46.0369Z" fill="white"/>
<path d="M154.716 43.4526L154.469 42.6492L153.943 42.823L154.716 43.4526Z" fill="white"/>
<path d="M154.82 45.5924L153.855 46.0366L154.716 43.4524L154.82 45.5924Z" fill="white"/>
</g>
</g>
<path d="M36.9651 76.0798H38.5858V72.47H41.8764V71.0703H38.5858V68.8848H42.6868V67.4851H36.9651V76.0798Z" fill="black" fill-opacity="0.9"/>
<path d="M46.0107 76.1781C47.8893 76.1781 49.2399 74.8275 49.2399 72.9857C49.2399 71.144 47.8893 69.7934 46.0107 69.7934C44.1199 69.7934 42.7692 71.144 42.7692 72.9857C42.7692 74.8275 44.1199 76.1781 46.0107 76.1781ZM46.0107 74.8766C44.9793 74.8766 44.2917 74.103 44.2917 72.9857C44.2917 71.8684 44.9793 71.0949 46.0107 71.0949C47.0298 71.0949 47.7174 71.8684 47.7174 72.9857C47.7174 74.103 47.0298 74.8766 46.0107 74.8766Z" fill="black" fill-opacity="0.9"/>
<path d="M50.345 76.0798H51.843V67.2395H50.345V76.0798Z" fill="black" fill-opacity="0.9"/>
<path d="M53.3666 76.0798H54.8646V67.2395H53.3666V76.0798Z" fill="black" fill-opacity="0.9"/>
<path d="M59.2122 76.1781C61.0908 76.1781 62.4414 74.8275 62.4414 72.9857C62.4414 71.144 61.0908 69.7934 59.2122 69.7934C57.3214 69.7934 55.9708 71.144 55.9708 72.9857C55.9708 74.8275 57.3214 76.1781 59.2122 76.1781ZM59.2122 74.8766C58.1808 74.8766 57.4933 74.103 57.4933 72.9857C57.4933 71.8684 58.1808 71.0949 59.2122 71.0949C60.2313 71.0949 60.9189 71.8684 60.9189 72.9857C60.9189 74.103 60.2313 74.8766 59.2122 74.8766Z" fill="black" fill-opacity="0.9"/>
<path d="M64.6939 76.0798H66.0199L67.2723 71.9175L68.5124 76.0798H69.8507L71.8153 69.8916H70.3173L69.1754 74.0294L67.9599 69.8916H66.5725L65.3569 74.0294L64.2273 69.8916H62.7171L64.6939 76.0798Z" fill="black" fill-opacity="0.9"/>
<path d="M80.6968 69.8916H79.1497L77.7254 74.1399L76.2889 69.8916H74.7541L77.0133 76.0798L76.1415 78.5846H77.5781L78.5358 75.7852L80.6968 69.8916Z" fill="black" fill-opacity="0.9"/>
<path d="M84.1165 76.1781C85.995 76.1781 87.3456 74.8275 87.3456 72.9857C87.3456 71.144 85.995 69.7934 84.1165 69.7934C82.2256 69.7934 80.875 71.144 80.875 72.9857C80.875 74.8275 82.2256 76.1781 84.1165 76.1781ZM84.1165 74.8766C83.0851 74.8766 82.3975 74.103 82.3975 72.9857C82.3975 71.8684 83.0851 71.0949 84.1165 71.0949C85.1355 71.0949 85.8231 71.8684 85.8231 72.9857C85.8231 74.103 85.1355 74.8766 84.1165 74.8766Z" fill="black" fill-opacity="0.9"/>
<path d="M94.111 69.8916H92.6008V73.2681C92.6008 74.1767 92.0115 74.8397 91.1643 74.8397C90.403 74.8397 89.875 74.2504 89.875 73.4032V69.8916H88.3771V73.7224C88.3771 75.1713 89.2857 76.1781 90.6731 76.1781C91.5572 76.1781 92.257 75.7974 92.6008 75.1221V76.0798H94.111V69.8916Z" fill="black" fill-opacity="0.9"/>
<path d="M99.2817 71.1563V69.8916H98.5573C97.7592 69.8916 97.2804 70.1986 96.9734 70.9844V69.8916H95.4632V76.0798H96.9734V73.1576C96.9734 71.9789 97.354 71.1563 98.3117 71.1563H99.2817Z" fill="black" fill-opacity="0.9"/>
<path d="M103.599 76.0798H105.109V71.1563H106.914V69.8916H105.109V69.3882C105.109 68.848 105.453 68.5164 105.981 68.5164H106.914V67.2395H105.809C104.47 67.2395 103.599 68.0621 103.599 69.3145V69.8916H102.383V71.1563H103.599V76.0798Z" fill="black" fill-opacity="0.9"/>
<path d="M110.115 69.7934C108.506 69.7934 107.462 70.7511 107.389 71.9789H108.739C108.764 71.4264 109.243 70.923 110.041 70.923C110.839 70.923 111.306 71.3527 111.306 71.9544C111.306 72.1999 111.158 72.3718 110.851 72.3718H109.709C108.322 72.3718 107.389 73.1208 107.389 74.3241C107.389 75.3923 108.224 76.1781 109.452 76.1781C110.336 76.1781 111.048 75.7729 111.306 75.159V76.0798H112.791V72.1017C112.791 70.702 111.686 69.7934 110.115 69.7934ZM109.808 75.0607C109.243 75.0607 108.85 74.7415 108.85 74.2627C108.85 73.7224 109.28 73.3663 109.918 73.3663H111.306V73.4646C111.306 74.3977 110.753 75.0607 109.808 75.0607Z" fill="black" fill-opacity="0.9"/>
<path d="M115.467 76.0798H116.879L119.15 69.8916H117.603L116.179 74.1644L114.742 69.8916H113.208L115.467 76.0798Z" fill="black" fill-opacity="0.9"/>
<path d="M122.57 76.1781C124.448 76.1781 125.799 74.8275 125.799 72.9857C125.799 71.144 124.448 69.7934 122.57 69.7934C120.679 69.7934 119.328 71.144 119.328 72.9857C119.328 74.8275 120.679 76.1781 122.57 76.1781ZM122.57 74.8766C121.539 74.8766 120.851 74.103 120.851 72.9857C120.851 71.8684 121.539 71.0949 122.57 71.0949C123.589 71.0949 124.277 71.8684 124.277 72.9857C124.277 74.103 123.589 74.8766 122.57 74.8766Z" fill="black" fill-opacity="0.9"/>
<path d="M130.637 71.1563V69.8916H129.912C129.114 69.8916 128.635 70.1986 128.329 70.9844V69.8916H126.818V76.0798H128.329V73.1576C128.329 71.9789 128.709 71.1563 129.667 71.1563H130.637Z" fill="black" fill-opacity="0.9"/>
<path d="M131.445 67.2395V68.9216H133.066V67.2395H131.445ZM131.507 76.0798H133.017V69.8916H131.507V76.0798Z" fill="black" fill-opacity="0.9"/>
<path d="M135.134 68.0253V69.8916H133.918V71.1563H135.134V73.9189C135.134 75.294 136.018 76.0798 137.368 76.0798H138.363V74.8029H137.54C136.975 74.8029 136.644 74.4837 136.644 73.8575V71.1563H138.363V69.8916H136.644V68.0253H135.134Z" fill="black" fill-opacity="0.9"/>
<path d="M143.465 74.0171C143.305 74.6065 142.802 74.9257 142.028 74.9257C141.071 74.9257 140.432 74.2872 140.322 73.2927H144.889C144.902 73.1699 144.914 72.9857 144.914 72.777C144.914 71.3036 143.981 69.7934 141.906 69.7934C139.88 69.7934 138.873 71.3282 138.873 72.9612C138.873 74.5819 140.003 76.1781 142.028 76.1781C143.551 76.1781 144.705 75.3309 144.938 74.0171H143.465ZM141.906 70.923C142.802 70.923 143.342 71.5123 143.404 72.2981H140.359C140.518 71.365 141.058 70.923 141.906 70.923Z" fill="black" fill-opacity="0.9"/>
<path d="M151.453 76.1781C153.049 76.1781 154.252 75.2081 154.449 73.8575H152.926C152.779 74.4714 152.226 74.8766 151.514 74.8766C150.458 74.8766 149.881 74.0662 149.881 72.9857C149.881 71.9052 150.446 71.0949 151.49 71.0949C152.202 71.0949 152.803 71.5369 152.914 72.1508H154.412C154.277 70.7265 153.012 69.7934 151.453 69.7934C149.525 69.7934 148.309 71.2177 148.309 72.9857C148.309 74.7538 149.525 76.1781 151.453 76.1781Z" fill="black" fill-opacity="0.9"/>
<path d="M158.326 76.1781C160.204 76.1781 161.555 74.8275 161.555 72.9857C161.555 71.144 160.204 69.7934 158.326 69.7934C156.435 69.7934 155.084 71.144 155.084 72.9857C155.084 74.8275 156.435 76.1781 158.326 76.1781ZM158.326 74.8766C157.294 74.8766 156.607 74.103 156.607 72.9857C156.607 71.8684 157.294 71.0949 158.326 71.0949C159.345 71.0949 160.032 71.8684 160.032 72.9857C160.032 74.103 159.345 74.8766 158.326 74.8766Z" fill="black" fill-opacity="0.9"/>
<path d="M162.512 67.2395V68.9216H164.133V67.2395H162.512ZM162.574 76.0798H164.084V69.8916H162.574V76.0798Z" fill="black" fill-opacity="0.9"/>
<path d="M165.44 76.0798H166.95V72.7033C166.95 71.7947 167.539 71.1317 168.386 71.1317C169.16 71.1317 169.676 71.7211 169.676 72.5683V76.0798H171.186V72.249C171.186 70.8002 170.277 69.7934 168.878 69.7934C167.993 69.7934 167.294 70.174 166.95 70.8493V69.8916H165.44V76.0798Z" fill="black" fill-opacity="0.9"/>
<path d="M174.773 76.1781C176.221 76.1781 177.167 75.4168 177.167 74.2504C177.167 71.4509 173.729 72.9243 173.729 71.586C173.729 71.1685 174.085 70.923 174.625 70.923C175.104 70.923 175.632 71.2177 175.718 71.7947H177.093C177.032 70.5915 176.037 69.7934 174.588 69.7934C173.312 69.7934 172.366 70.5546 172.366 71.6351C172.366 74.2504 175.755 72.9366 175.755 74.3118C175.755 74.6801 175.362 74.9748 174.773 74.9748C174.097 74.9748 173.643 74.6065 173.582 74.0171H172.206C172.28 75.3431 173.275 76.1781 174.773 76.1781Z" fill="black" fill-opacity="0.9"/>
<path d="M181.669 68.0253V69.8916H180.453V71.1563H181.669V73.9189C181.669 75.294 182.553 76.0798 183.903 76.0798H184.898V74.8029H184.075C183.51 74.8029 183.179 74.4837 183.179 73.8575V71.1563H184.898V69.8916H183.179V68.0253H181.669Z" fill="black" fill-opacity="0.9"/>
<path d="M188.649 76.1781C190.528 76.1781 191.879 74.8275 191.879 72.9857C191.879 71.144 190.528 69.7934 188.649 69.7934C186.759 69.7934 185.408 71.144 185.408 72.9857C185.408 74.8275 186.759 76.1781 188.649 76.1781ZM188.649 74.8766C187.618 74.8766 186.93 74.103 186.93 72.9857C186.93 71.8684 187.618 71.0949 188.649 71.0949C189.669 71.0949 190.356 71.8684 190.356 72.9857C190.356 74.103 189.669 74.8766 188.649 74.8766Z" fill="black" fill-opacity="0.9"/>
<path d="M195.584 76.0798H197.094V72.5314C197.094 71.6597 197.597 71.0826 198.395 71.0826C199.12 71.0826 199.574 71.6597 199.574 72.5314V76.0798H201.072V72.5314C201.072 71.6597 201.575 71.0826 202.386 71.0826C203.11 71.0826 203.565 71.6597 203.565 72.5314V76.0798H205.062V72.0771C205.062 70.7634 204.203 69.7934 202.865 69.7934C201.882 69.7934 201.097 70.3336 200.814 70.9721C200.544 70.2108 199.869 69.7934 198.887 69.7934C198.015 69.7934 197.401 70.2354 197.094 70.8616V69.8916H195.584V76.0798Z" fill="black" fill-opacity="0.9"/>
<path d="M208.88 69.7934C207.272 69.7934 206.228 70.7511 206.154 71.9789H207.505C207.53 71.4264 208.008 70.923 208.807 70.923C209.605 70.923 210.071 71.3527 210.071 71.9544C210.071 72.1999 209.924 72.3718 209.617 72.3718H208.475C207.088 72.3718 206.154 73.1208 206.154 74.3241C206.154 75.3923 206.989 76.1781 208.217 76.1781C209.101 76.1781 209.813 75.7729 210.071 75.159V76.0798H211.557V72.1017C211.557 70.702 210.452 69.7934 208.88 69.7934ZM208.573 75.0607C208.008 75.0607 207.616 74.7415 207.616 74.2627C207.616 73.7224 208.045 73.3663 208.684 73.3663H210.071V73.4646C210.071 74.3977 209.519 75.0607 208.573 75.0607Z" fill="black" fill-opacity="0.9"/>
<path d="M217.075 76.0798H218.904L216.178 72.3227L218.695 69.8916H216.78L214.41 72.1508V67.2395H212.9V76.0798H214.41V74.0294L215.147 73.3172L217.075 76.0798Z" fill="black" fill-opacity="0.9"/>
<path d="M223.561 74.0171C223.402 74.6065 222.898 74.9257 222.125 74.9257C221.167 74.9257 220.529 74.2872 220.418 73.2927H224.986C224.998 73.1699 225.01 72.9857 225.01 72.777C225.01 71.3036 224.077 69.7934 222.002 69.7934C219.976 69.7934 218.969 71.3282 218.969 72.9612C218.969 74.5819 220.099 76.1781 222.125 76.1781C223.647 76.1781 224.802 75.3309 225.035 74.0171H223.561ZM222.002 70.923C222.898 70.923 223.439 71.5123 223.5 72.2981H220.455C220.615 71.365 221.155 70.923 222.002 70.923Z" fill="black" fill-opacity="0.9"/>
<path d="M70.349 85.0253V86.8916H69.1334V88.1563H70.349V90.9189C70.349 92.294 71.233 93.0798 72.5836 93.0798H73.5782V91.8029H72.7555C72.1907 91.8029 71.8592 91.4837 71.8592 90.8575V88.1563H73.5782V86.8916H71.8592V85.0253H70.349Z" fill="black" fill-opacity="0.9"/>
<path d="M74.9135 93.0798H76.4115V89.7033C76.4115 88.7947 77.0131 88.1317 77.848 88.1317C78.6215 88.1317 79.1495 88.7211 79.1495 89.5683V93.0798H80.6475V89.249C80.6475 87.8002 79.7389 86.7934 78.3514 86.7934C77.4674 86.7934 76.7553 87.174 76.4115 87.8493V84.2395H74.9135V93.0798Z" fill="black" fill-opacity="0.9"/>
<path d="M86.2584 91.0171C86.0988 91.6065 85.5954 91.9257 84.8219 91.9257C83.8642 91.9257 83.2257 91.2872 83.1152 90.2927H87.6827C87.695 90.1699 87.7073 89.9857 87.7073 89.777C87.7073 88.3036 86.7741 86.7934 84.6991 86.7934C82.6732 86.7934 81.6664 88.3282 81.6664 89.9612C81.6664 91.5819 82.796 93.1781 84.8219 93.1781C86.3444 93.1781 87.4985 92.3309 87.7318 91.0171H86.2584ZM84.6991 87.923C85.5954 87.923 86.1356 88.5123 86.197 89.2981H83.152C83.3117 88.365 83.8519 87.923 84.6991 87.923Z" fill="black" fill-opacity="0.9"/>
<path d="M91.4344 93.0798H92.9446V89.5314C92.9446 88.6597 93.448 88.0826 94.2461 88.0826C94.9705 88.0826 95.4248 88.6597 95.4248 89.5314V93.0798H96.9228V89.5314C96.9228 88.6597 97.4262 88.0826 98.2365 88.0826C98.9609 88.0826 99.4152 88.6597 99.4152 89.5314V93.0798H100.913V89.0771C100.913 87.7634 100.054 86.7934 98.7154 86.7934C97.7331 86.7934 96.9473 87.3336 96.6649 87.9721C96.3948 87.2108 95.7195 86.7934 94.7372 86.7934C93.8655 86.7934 93.2516 87.2354 92.9446 87.8616V86.8916H91.4344V93.0798Z" fill="black" fill-opacity="0.9"/>
<path d="M105.172 93.1781C107.05 93.1781 108.401 91.8275 108.401 89.9857C108.401 88.144 107.05 86.7934 105.172 86.7934C103.281 86.7934 101.93 88.144 101.93 89.9857C101.93 91.8275 103.281 93.1781 105.172 93.1781ZM105.172 91.8766C104.14 91.8766 103.453 91.103 103.453 89.9857C103.453 88.8684 104.14 88.0949 105.172 88.0949C106.191 88.0949 106.878 88.8684 106.878 89.9857C106.878 91.103 106.191 91.8766 105.172 91.8766Z" fill="black" fill-opacity="0.9"/>
<path d="M111.595 93.1781C113.044 93.1781 113.989 92.4168 113.989 91.2504C113.989 88.4509 110.551 89.9243 110.551 88.586C110.551 88.1685 110.907 87.923 111.447 87.923C111.926 87.923 112.454 88.2177 112.54 88.7947H113.915C113.854 87.5915 112.859 86.7934 111.411 86.7934C110.134 86.7934 109.188 87.5546 109.188 88.6351C109.188 91.2504 112.577 89.9366 112.577 91.3118C112.577 91.6801 112.184 91.9748 111.595 91.9748C110.919 91.9748 110.465 91.6065 110.404 91.0171H109.029C109.102 92.3431 110.097 93.1781 111.595 93.1781Z" fill="black" fill-opacity="0.9"/>
<path d="M115.721 85.0253V86.8916H114.505V88.1563H115.721V90.9189C115.721 92.294 116.605 93.0798 117.956 93.0798H118.95V91.8029H118.128C117.563 91.8029 117.231 91.4837 117.231 90.8575V88.1563H118.95V86.8916H117.231V85.0253H115.721Z" fill="black" fill-opacity="0.9"/>
<path d="M125.508 93.1781C127.386 93.1781 128.737 91.8275 128.737 89.9857C128.737 88.144 127.386 86.7934 125.508 86.7934C123.617 86.7934 122.266 88.144 122.266 89.9857C122.266 91.8275 123.617 93.1781 125.508 93.1781ZM125.508 91.8766C124.476 91.8766 123.789 91.103 123.789 89.9857C123.789 88.8684 124.476 88.0949 125.508 88.0949C126.527 88.0949 127.214 88.8684 127.214 89.9857C127.214 91.103 126.527 91.8766 125.508 91.8766Z" fill="black" fill-opacity="0.9"/>
<path d="M135.502 86.8916H133.992V90.2681C133.992 91.1767 133.403 91.8397 132.555 91.8397C131.794 91.8397 131.266 91.2504 131.266 90.4032V86.8916H129.768V90.7224C129.768 92.1713 130.677 93.1781 132.064 93.1781C132.948 93.1781 133.648 92.7974 133.992 92.1221V93.0798H135.502V86.8916Z" fill="black" fill-opacity="0.9"/>
<path d="M137.616 85.0253V86.8916H136.4V88.1563H137.616V90.9189C137.616 92.294 138.5 93.0798 139.85 93.0798H140.845V91.8029H140.022C139.457 91.8029 139.126 91.4837 139.126 90.8575V88.1563H140.845V86.8916H139.126V85.0253H137.616Z" fill="black" fill-opacity="0.9"/>
<path d="M147.402 93.1781C149.281 93.1781 150.631 91.8275 150.631 89.9857C150.631 88.144 149.281 86.7934 147.402 86.7934C145.511 86.7934 144.161 88.144 144.161 89.9857C144.161 91.8275 145.511 93.1781 147.402 93.1781ZM147.402 91.8766C146.371 91.8766 145.683 91.103 145.683 89.9857C145.683 88.8684 146.371 88.0949 147.402 88.0949C148.421 88.0949 149.109 88.8684 149.109 89.9857C149.109 91.103 148.421 91.8766 147.402 91.8766Z" fill="black" fill-opacity="0.9"/>
<path d="M152.268 93.0798H153.778V88.1563H155.583V86.8916H153.778V86.3882C153.778 85.848 154.122 85.5164 154.65 85.5164H155.583V84.2395H154.478C153.14 84.2395 152.268 85.0621 152.268 86.3145V86.8916H151.052V88.1563H152.268V93.0798Z" fill="black" fill-opacity="0.9"/>
<path d="M159.376 93.0798H162.826C164.631 93.0798 165.822 92.1344 165.822 90.5382C165.822 89.3841 165.159 88.6965 164.349 88.3895C164.877 88.1194 165.392 87.5055 165.392 86.6952C165.392 85.2709 164.275 84.4851 162.703 84.4851H159.376V93.0798ZM160.972 87.8493V85.7866H162.568C163.452 85.7866 163.882 86.1549 163.882 86.8179C163.882 87.481 163.452 87.8493 162.593 87.8493H160.972ZM160.972 91.6678V89.2245H162.654C163.747 89.2245 164.263 89.6665 164.263 90.4523C164.263 91.2504 163.747 91.6678 162.654 91.6678H160.972Z" fill="black" fill-opacity="0.9"/>
<path d="M172.673 86.8916H171.162V90.2681C171.162 91.1767 170.573 91.8397 169.726 91.8397C168.965 91.8397 168.437 91.2504 168.437 90.4032V86.8916H166.939V90.7224C166.939 92.1713 167.847 93.1781 169.235 93.1781C170.119 93.1781 170.819 92.7974 171.162 92.1221V93.0798H172.673V86.8916Z" fill="black" fill-opacity="0.9"/>
<path d="M176.259 93.1781C177.708 93.1781 178.654 92.4168 178.654 91.2504C178.654 88.4509 175.216 89.9243 175.216 88.586C175.216 88.1685 175.572 87.923 176.112 87.923C176.591 87.923 177.119 88.2177 177.205 88.7947H178.58C178.519 87.5915 177.524 86.7934 176.075 86.7934C174.798 86.7934 173.853 87.5546 173.853 88.6351C173.853 91.2504 177.242 89.9366 177.242 91.3118C177.242 91.6801 176.849 91.9748 176.259 91.9748C175.584 91.9748 175.13 91.6065 175.068 91.0171H173.693C173.767 92.3431 174.761 93.1781 176.259 93.1781Z" fill="black" fill-opacity="0.9"/>
<path d="M179.794 93.0798H181.292V89.7033C181.292 88.7947 181.894 88.1317 182.729 88.1317C183.502 88.1317 184.03 88.7211 184.03 89.5683V93.0798H185.528V89.249C185.528 87.8002 184.62 86.7934 183.232 86.7934C182.348 86.7934 181.636 87.174 181.292 87.8493V84.2395H179.794V93.0798Z" fill="black" fill-opacity="0.9"/>
<path d="M189.348 86.7934C187.739 86.7934 186.696 87.7511 186.622 88.9789H187.973C187.997 88.4264 188.476 87.923 189.274 87.923C190.072 87.923 190.539 88.3527 190.539 88.9543C190.539 89.1999 190.391 89.3718 190.084 89.3718H188.943C187.555 89.3718 186.622 90.1208 186.622 91.3241C186.622 92.3923 187.457 93.1781 188.685 93.1781C189.569 93.1781 190.281 92.7729 190.539 92.159V93.0798H192.024V89.1017C192.024 87.702 190.919 86.7934 189.348 86.7934ZM189.041 92.0607C188.476 92.0607 188.083 91.7415 188.083 91.2627C188.083 90.7224 188.513 90.3663 189.151 90.3663H190.539V90.4646C190.539 91.3977 189.986 92.0607 189.041 92.0607Z" fill="black" fill-opacity="0.9"/>
<path d="M5.53174 102.387H256.468V139.874H5.53174V102.387Z" fill="white"/>
<path d="M100.576 126.228C102.467 126.228 103.78 125.258 103.78 123.662C103.78 120.31 99.1024 121.735 99.1024 119.831C99.1024 119.23 99.6304 118.837 100.478 118.837C101.386 118.837 101.976 119.34 102.049 120.089H103.596C103.523 118.481 102.295 117.437 100.478 117.437C98.7341 117.437 97.5186 118.419 97.5186 119.831C97.5186 123.122 102.135 121.845 102.135 123.687C102.135 124.448 101.497 124.816 100.576 124.816C99.5445 124.816 98.906 124.202 98.82 123.245H97.2607C97.3467 125.05 98.6236 126.228 100.576 126.228ZM109.059 124.067C108.9 124.657 108.396 124.976 107.623 124.976C106.665 124.976 106.027 124.338 105.916 123.343H110.484C110.496 123.22 110.508 123.036 110.508 122.827C110.508 121.354 109.575 119.844 107.5 119.844C105.474 119.844 104.467 121.378 104.467 123.011C104.467 124.632 105.597 126.228 107.623 126.228C109.145 126.228 110.299 125.381 110.533 124.067H109.059ZM107.5 120.973C108.396 120.973 108.937 121.563 108.998 122.348H105.953C106.113 121.415 106.653 120.973 107.5 120.973ZM115.81 124.067C115.65 124.657 115.147 124.976 114.373 124.976C113.416 124.976 112.777 124.338 112.667 123.343H117.234C117.247 123.22 117.259 123.036 117.259 122.827C117.259 121.354 116.326 119.844 114.251 119.844C112.225 119.844 111.218 121.378 111.218 123.011C111.218 124.632 112.348 126.228 114.373 126.228C115.896 126.228 117.05 125.381 117.283 124.067H115.81ZM114.251 120.973C115.147 120.973 115.687 121.563 115.749 122.348H112.704C112.863 121.415 113.403 120.973 114.251 120.973ZM123.503 119.844C121.895 119.844 120.851 120.801 120.777 122.029H122.128C122.152 121.477 122.631 120.973 123.429 120.973C124.227 120.973 124.694 121.403 124.694 122.005C124.694 122.25 124.547 122.422 124.24 122.422H123.098C121.71 122.422 120.777 123.171 120.777 124.374C120.777 125.443 121.612 126.228 122.84 126.228C123.724 126.228 124.436 125.823 124.694 125.209V126.13H126.18V122.152C126.18 120.752 125.075 119.844 123.503 119.844ZM123.196 125.111C122.631 125.111 122.238 124.792 122.238 124.313C122.238 123.773 122.668 123.417 123.307 123.417H124.694V123.515C124.694 124.448 124.141 125.111 123.196 125.111ZM127.523 126.13H129.021V117.29H127.523V126.13ZM130.544 126.13H132.042V117.29H130.544V126.13ZM138.978 126.228C140.574 126.228 141.777 125.258 141.974 123.908H140.451C140.304 124.522 139.751 124.927 139.039 124.927C137.983 124.927 137.406 124.116 137.406 123.036C137.406 121.956 137.971 121.145 139.014 121.145C139.727 121.145 140.328 121.587 140.439 122.201H141.937C141.802 120.777 140.537 119.844 138.978 119.844C137.05 119.844 135.834 121.268 135.834 123.036C135.834 124.804 137.05 126.228 138.978 126.228ZM145.85 126.228C147.729 126.228 149.08 124.878 149.08 123.036C149.08 121.194 147.729 119.844 145.85 119.844C143.96 119.844 142.609 121.194 142.609 123.036C142.609 124.878 143.96 126.228 145.85 126.228ZM145.85 124.927C144.819 124.927 144.131 124.153 144.131 123.036C144.131 121.919 144.819 121.145 145.85 121.145C146.87 121.145 147.557 121.919 147.557 123.036C147.557 124.153 146.87 124.927 145.85 124.927ZM150.037 117.29V118.972H151.658V117.29H150.037ZM150.099 126.13H151.609V119.942H150.099V126.13ZM152.965 126.13H154.475V122.754C154.475 121.845 155.064 121.182 155.911 121.182C156.685 121.182 157.201 121.771 157.201 122.619V126.13H158.711V122.299C158.711 120.85 157.802 119.844 156.402 119.844C155.518 119.844 154.819 120.224 154.475 120.9V119.942H152.965V126.13ZM162.298 126.228C163.746 126.228 164.692 125.467 164.692 124.301C164.692 121.501 161.254 122.975 161.254 121.636C161.254 121.219 161.61 120.973 162.15 120.973C162.629 120.973 163.157 121.268 163.243 121.845H164.618C164.557 120.642 163.562 119.844 162.113 119.844C160.836 119.844 159.891 120.605 159.891 121.685C159.891 124.301 163.28 122.987 163.28 124.362C163.28 124.73 162.887 125.025 162.298 125.025C161.622 125.025 161.168 124.657 161.107 124.067H159.731C159.805 125.393 160.8 126.228 162.298 126.228Z" fill="#12A633"/>
<path d="M5.53174 102.387V101.619H4.76435V102.387H5.53174ZM256.468 102.387H257.236V101.619H256.468V102.387ZM256.468 139.874V140.641H257.236V139.874H256.468ZM5.53174 139.874H4.76435V140.641H5.53174V139.874ZM5.53174 103.154H256.468V101.619H5.53174V103.154ZM255.701 102.387V139.874H257.236V102.387H255.701ZM256.468 139.106H5.53174V140.641H256.468V139.106ZM6.29913 139.874V102.387H4.76435V139.874H6.29913Z" fill="white"/>
<rect x="0.6" y="0.6" width="260.8" height="156.8" rx="6.53913" stroke="black" stroke-opacity="0.08" stroke-width="0.8"/>
<defs>
<clipPath id="clip0_84:4763">
<rect width="24.5565" height="24.5565" fill="white" transform="translate(101.839 33.4741)"/>
</clipPath>
<clipPath id="clip1_84:4763">
<rect width="24.5565" height="24.5565" fill="white" transform="translate(118.722 33.4741)"/>
</clipPath>
<clipPath id="clip2_84:4763">
<rect width="24.5565" height="24.5565" fill="white" transform="translate(135.604 33.4741)"/>
</clipPath>
<clipPath id="clip3_84:4763">
<rect width="17.1896" height="10.6228" fill="white" transform="translate(139.288 40.2271)"/>
</clipPath>
</defs>
</svg>
