<svg width="120" height="31" viewBox="0 0 120 31" fill="none" xmlns="http://www.w3.org/2000/svg">
<path d="M44.8488 24.2779V26.1616H41.2024V4.63867H44.8488V12.9185C45.716 11.6932 47.3305 10.8556 49.2735 10.8556C53.7278 10.8556 56.3873 14.024 56.3873 18.6278C56.3873 23.2316 53.7265 26.4 49.2129 26.4C47.3897 26.4 45.716 25.5934 44.8488 24.2779ZM52.7408 18.6278C52.7408 15.8485 51.1264 14.0253 48.6756 14.0253C46.2249 14.0253 44.6105 15.8485 44.6105 18.6291C44.6105 21.4097 46.2236 23.2316 48.6756 23.2316C51.1264 23.2316 52.7408 21.4084 52.7408 18.6278Z" fill="black"/>
<path d="M72.8889 26.1615H69.2116V23.8293C68.3741 25.4734 66.6707 26.3999 64.5189 26.3999C61.1405 26.3999 58.9294 23.9491 58.9294 20.4213V11.0952H62.5759V19.6443C62.5759 21.7072 63.8618 23.1413 65.7146 23.1413C67.7775 23.1413 69.2116 21.5268 69.2116 19.3144V11.0939H72.8889V26.1615Z" fill="black"/>
<path d="M75.3694 21.139H78.7169C78.8664 22.5744 79.9719 23.4711 81.616 23.4711C83.0514 23.4711 84.0074 22.7535 84.0074 21.8567C84.0074 18.5092 75.7572 21.7072 75.7572 15.3408C75.7572 12.7097 78.0585 10.8568 81.1676 10.8568C84.6955 10.8568 87.1166 12.7999 87.266 15.7286H83.9185C83.7098 14.3241 82.4239 13.6065 81.2578 13.6065C79.9422 13.6065 79.0751 14.2043 79.0751 15.2209C79.0751 18.4795 87.4451 14.8924 87.4451 21.7072C87.4451 24.547 85.1439 26.3999 81.616 26.3999C77.9708 26.3999 75.5485 24.3679 75.3694 21.139Z" fill="black"/>
<path d="M90.2269 4.63855H93.8734V13.4274C94.7109 11.7832 96.4439 10.8568 98.597 10.8568C101.975 10.8568 104.186 13.3075 104.186 16.8354V26.1615H100.54V17.6124C100.54 15.5495 99.2541 14.1154 97.3716 14.1154C95.3384 14.1154 93.8746 15.7299 93.8746 17.9422V26.1628H90.2282V4.63855H90.2269Z" fill="black"/>
<path d="M120 16.4759V26.1615H116.383V23.9195C115.756 25.4142 114.021 26.4012 111.87 26.4012C108.88 26.4012 106.847 24.4878 106.847 21.8876C106.847 18.9576 109.119 17.1343 112.497 17.1343H115.278C116.025 17.1343 116.383 16.7156 116.383 16.1177C116.383 14.6527 115.247 13.6065 113.304 13.6065C111.361 13.6065 110.195 14.8318 110.135 16.177H106.847C107.026 13.1877 109.567 10.8568 113.483 10.8568C117.31 10.8555 120 13.0679 120 16.4759ZM116.383 19.7938V19.5541H113.005C111.451 19.5541 110.405 20.4213 110.405 21.7368C110.405 22.9029 111.361 23.6799 112.737 23.6799C115.037 23.6799 116.383 22.0654 116.383 19.7938Z" fill="black"/>
<path d="M28.4531 30.9022C28.1294 30.9027 27.8087 30.8385 27.5101 30.7134C27.2115 30.5882 26.9409 30.4047 26.7142 30.1735L0.720416 4.19734C0.30179 3.72643 0.079201 3.11324 0.0983031 2.48349C0.117405 1.85375 0.376748 1.25518 0.823147 0.810501C1.26955 0.36582 1.86918 0.108729 2.4991 0.0919413C3.12903 0.075154 3.74151 0.299937 4.21097 0.720211L30.192 26.6964C30.5347 27.0414 30.7678 27.4799 30.862 27.9569C30.9563 28.4339 30.9074 28.9281 30.7216 29.3775C30.5359 29.8268 30.2214 30.2113 29.8178 30.4825C29.4142 30.7538 28.9395 30.8998 28.4531 30.9022V30.9022Z" fill="#16CB3E"/>
<path d="M28.4551 15.9504C28.1312 15.9495 27.8107 15.8846 27.512 15.7594C27.2133 15.6342 26.9422 15.4512 26.7145 15.2209L15.6947 4.20195C15.2331 3.74034 14.9738 3.11427 14.9738 2.46145C14.9738 1.80863 15.2331 1.18255 15.6947 0.72094C16.1564 0.25933 16.7825 0 17.4354 0C18.0882 0 18.7144 0.25933 19.176 0.72094L30.1958 11.7399C30.4264 11.9673 30.6095 12.2383 30.7345 12.5371C30.8595 12.8358 30.9239 13.1565 30.9239 13.4804C30.9239 13.8043 30.8595 14.1249 30.7345 14.4237C30.6095 14.7225 30.4264 14.9935 30.1958 15.2209C29.9698 15.4535 29.6991 15.638 29.4 15.7634C29.1008 15.8888 28.7795 15.9523 28.4551 15.9504V15.9504Z" fill="#16CB3E"/>
<path d="M13.4814 30.9239C13.1575 30.923 12.837 30.8581 12.5382 30.7329C12.2395 30.6077 11.9685 30.4247 11.7407 30.1944L0.720994 19.1755C0.492411 18.9469 0.311081 18.6755 0.187373 18.3769C0.0636644 18.0783 0 17.7582 0 17.435C0 17.1117 0.0636644 16.7916 0.187373 16.493C0.311081 16.1944 0.492411 15.923 0.720994 15.6945C0.949578 15.4659 1.22095 15.2846 1.51961 15.1609C1.81826 15.0372 2.13836 14.9735 2.46163 14.9735C2.78489 14.9735 3.10499 15.0372 3.40365 15.1609C3.7023 15.2846 3.97367 15.4659 4.20226 15.6945L15.222 26.7134C15.4526 26.9408 15.6358 27.2118 15.7608 27.5106C15.8858 27.8094 15.9502 28.13 15.9502 28.4539C15.9502 28.7778 15.8858 29.0984 15.7608 29.3972C15.6358 29.696 15.4526 29.967 15.222 30.1944C14.996 30.427 14.7253 30.6116 14.4262 30.7369C14.1271 30.8623 13.8057 30.9259 13.4814 30.9239V30.9239Z" fill="#16CB3E"/>
</svg>
